# xmcd
#
# Track frame offsets: 
#        150
#        25069
#        45788
#        66035
#        89381
#        110903
#        129141
#        147800
#        168269
#        187334
#        212518
#        227174
#
# Disc length: 3430 seconds
#
# Revision: 0
# Processed by: cddbd v1.4PL0 Copyright (c) Steve Scherf et al.
# Submitted via: ExactAudioCopy v0.90b4
#
DISCID=9d0d640c
DTITLE=Emmylou Harris - Trädgår'n Göteborg
DYEAR=2000
DGENRE=Country
TTITLE0=The pearl
TTITLE1=I don't wanna talk about it now
TTITLE2=I ain't living long like this
TTITLE3=Wrecking ball
TTITLE4=Red dirt girl
TTITLE5=My Antonia
TTITLE6=One big love
TTITLE7=All my tears
TTITLE8=Love hurts
TTITLE9=Hour of gold
TTITLE10=Orphan girl
TTITLE11=Deeper well
EXTD=
EXTT0=
EXTT1=
EXTT2=
EXTT3=
EXTT4=
EXTT5=
EXTT6=
EXTT7=
EXTT8=
EXTT9=
EXTT10=
EXTT11=
PLAYORDER=
